<mxfile host="app.diagrams.net" agent="Mozilla/5.0 (Windows NT 10.0; Win64; x64; rv:138.0) Gecko/20100101 Firefox/138.0" version="27.0.5">
  <diagram id="C5RBs43oDa-KdzZeNtuy" name="Page-1">
    <mxGraphModel dx="2590" dy="2142" grid="1" gridSize="10" guides="1" tooltips="1" connect="1" arrows="1" fold="1" page="1" pageScale="1" pageWidth="827" pageHeight="1169" math="0" shadow="0">
      <root>
        <mxCell id="WIyWlLk6GJQsqaUBKTNV-0" />
        <mxCell id="WIyWlLk6GJQsqaUBKTNV-1" parent="WIyWlLk6GJQsqaUBKTNV-0" />
        <mxCell id="zkfFHV4jXpPFQw0GAbJ--6" value="Chef" style="swimlane;fontStyle=0;align=center;verticalAlign=top;childLayout=stackLayout;horizontal=1;startSize=26;horizontalStack=0;resizeParent=1;resizeLast=0;collapsible=1;marginBottom=0;rounded=0;shadow=0;strokeWidth=1;" parent="WIyWlLk6GJQsqaUBKTNV-1" vertex="1">
          <mxGeometry x="80" y="720" width="160" height="138" as="geometry">
            <mxRectangle x="130" y="380" width="160" height="26" as="alternateBounds" />
          </mxGeometry>
        </mxCell>
        <mxCell id="zkfFHV4jXpPFQw0GAbJ--7" value="-Name:string" style="text;align=left;verticalAlign=top;spacingLeft=4;spacingRight=4;overflow=hidden;rotatable=0;points=[[0,0.5],[1,0.5]];portConstraint=eastwest;" parent="zkfFHV4jXpPFQw0GAbJ--6" vertex="1">
          <mxGeometry y="26" width="160" height="26" as="geometry" />
        </mxCell>
        <mxCell id="zkfFHV4jXpPFQw0GAbJ--9" value="" style="line;html=1;strokeWidth=1;align=left;verticalAlign=middle;spacingTop=-1;spacingLeft=3;spacingRight=3;rotatable=0;labelPosition=right;points=[];portConstraint=eastwest;" parent="zkfFHV4jXpPFQw0GAbJ--6" vertex="1">
          <mxGeometry y="52" width="160" height="8" as="geometry" />
        </mxCell>
        <mxCell id="zkfFHV4jXpPFQw0GAbJ--12" value="" style="endArrow=block;endSize=10;endFill=0;shadow=0;strokeWidth=1;rounded=0;curved=0;edgeStyle=elbowEdgeStyle;elbow=vertical;entryX=0.484;entryY=0.996;entryDx=0;entryDy=0;entryPerimeter=0;" parent="WIyWlLk6GJQsqaUBKTNV-1" source="zkfFHV4jXpPFQw0GAbJ--6" target="alVLBjZMII1kR8QUV2R1-3" edge="1">
          <mxGeometry width="160" relative="1" as="geometry">
            <mxPoint x="200" y="203" as="sourcePoint" />
            <mxPoint x="300" y="258" as="targetPoint" />
          </mxGeometry>
        </mxCell>
        <mxCell id="zkfFHV4jXpPFQw0GAbJ--13" value="Fisherman" style="swimlane;fontStyle=0;align=center;verticalAlign=top;childLayout=stackLayout;horizontal=1;startSize=26;horizontalStack=0;resizeParent=1;resizeLast=0;collapsible=1;marginBottom=0;rounded=0;shadow=0;strokeWidth=1;" parent="WIyWlLk6GJQsqaUBKTNV-1" vertex="1">
          <mxGeometry x="360" y="615" width="160" height="70" as="geometry">
            <mxRectangle x="340" y="380" width="170" height="26" as="alternateBounds" />
          </mxGeometry>
        </mxCell>
        <mxCell id="zkfFHV4jXpPFQw0GAbJ--14" value="-Name:string" style="text;align=left;verticalAlign=top;spacingLeft=4;spacingRight=4;overflow=hidden;rotatable=0;points=[[0,0.5],[1,0.5]];portConstraint=eastwest;" parent="zkfFHV4jXpPFQw0GAbJ--13" vertex="1">
          <mxGeometry y="26" width="160" height="26" as="geometry" />
        </mxCell>
        <mxCell id="zkfFHV4jXpPFQw0GAbJ--15" value="" style="line;html=1;strokeWidth=1;align=left;verticalAlign=middle;spacingTop=-1;spacingLeft=3;spacingRight=3;rotatable=0;labelPosition=right;points=[];portConstraint=eastwest;" parent="zkfFHV4jXpPFQw0GAbJ--13" vertex="1">
          <mxGeometry y="52" width="160" height="8" as="geometry" />
        </mxCell>
        <mxCell id="zkfFHV4jXpPFQw0GAbJ--16" value="" style="endArrow=block;endSize=10;endFill=0;shadow=0;strokeWidth=1;rounded=0;curved=0;edgeStyle=elbowEdgeStyle;elbow=vertical;entryX=0.489;entryY=0.95;entryDx=0;entryDy=0;entryPerimeter=0;" parent="WIyWlLk6GJQsqaUBKTNV-1" source="zkfFHV4jXpPFQw0GAbJ--13" target="alVLBjZMII1kR8QUV2R1-3" edge="1">
          <mxGeometry width="160" relative="1" as="geometry">
            <mxPoint x="210" y="373" as="sourcePoint" />
            <mxPoint x="300" y="258" as="targetPoint" />
          </mxGeometry>
        </mxCell>
        <mxCell id="alVLBjZMII1kR8QUV2R1-0" value="User" style="swimlane;fontStyle=1;align=center;verticalAlign=top;childLayout=stackLayout;horizontal=1;startSize=26;horizontalStack=0;resizeParent=1;resizeParentMax=0;resizeLast=0;collapsible=1;marginBottom=0;whiteSpace=wrap;html=1;" vertex="1" parent="WIyWlLk6GJQsqaUBKTNV-1">
          <mxGeometry x="100" y="542" width="160" height="86" as="geometry" />
        </mxCell>
        <mxCell id="alVLBjZMII1kR8QUV2R1-1" value="-Type:string" style="text;strokeColor=none;fillColor=none;align=left;verticalAlign=top;spacingLeft=4;spacingRight=4;overflow=hidden;rotatable=0;points=[[0,0.5],[1,0.5]];portConstraint=eastwest;whiteSpace=wrap;html=1;" vertex="1" parent="alVLBjZMII1kR8QUV2R1-0">
          <mxGeometry y="26" width="160" height="26" as="geometry" />
        </mxCell>
        <mxCell id="alVLBjZMII1kR8QUV2R1-2" value="" style="line;strokeWidth=1;fillColor=none;align=left;verticalAlign=middle;spacingTop=-1;spacingLeft=3;spacingRight=3;rotatable=0;labelPosition=right;points=[];portConstraint=eastwest;strokeColor=inherit;" vertex="1" parent="alVLBjZMII1kR8QUV2R1-0">
          <mxGeometry y="52" width="160" height="8" as="geometry" />
        </mxCell>
        <mxCell id="alVLBjZMII1kR8QUV2R1-3" value="+jButton1ActionPrformed()" style="text;strokeColor=none;fillColor=none;align=left;verticalAlign=top;spacingLeft=4;spacingRight=4;overflow=hidden;rotatable=0;points=[[0,0.5],[1,0.5]];portConstraint=eastwest;whiteSpace=wrap;html=1;" vertex="1" parent="alVLBjZMII1kR8QUV2R1-0">
          <mxGeometry y="60" width="160" height="26" as="geometry" />
        </mxCell>
        <mxCell id="alVLBjZMII1kR8QUV2R1-4" value="Create profile&lt;br&gt;Add the atrributes" style="text;html=1;align=center;verticalAlign=middle;resizable=0;points=[];autosize=1;strokeColor=none;fillColor=none;" vertex="1" parent="WIyWlLk6GJQsqaUBKTNV-1">
          <mxGeometry y="660" width="120" height="40" as="geometry" />
        </mxCell>
        <mxCell id="alVLBjZMII1kR8QUV2R1-5" value="" style="endArrow=block;endSize=10;endFill=0;shadow=0;strokeWidth=1;rounded=0;elbow=vertical;exitX=0.5;exitY=0;exitDx=0;exitDy=0;entryX=0.5;entryY=1;entryDx=0;entryDy=0;" edge="1" parent="WIyWlLk6GJQsqaUBKTNV-1" source="alVLBjZMII1kR8QUV2R1-11" target="zkfFHV4jXpPFQw0GAbJ--13">
          <mxGeometry width="160" relative="1" as="geometry">
            <mxPoint x="402.5" y="510" as="sourcePoint" />
            <mxPoint x="398" y="430" as="targetPoint" />
          </mxGeometry>
        </mxCell>
        <mxCell id="alVLBjZMII1kR8QUV2R1-11" value="Fishing_Expertise" style="swimlane;fontStyle=1;align=center;verticalAlign=top;childLayout=stackLayout;horizontal=1;startSize=26;horizontalStack=0;resizeParent=1;resizeParentMax=0;resizeLast=0;collapsible=1;marginBottom=0;whiteSpace=wrap;html=1;" vertex="1" parent="WIyWlLk6GJQsqaUBKTNV-1">
          <mxGeometry x="370" y="790" width="160" height="60" as="geometry" />
        </mxCell>
        <mxCell id="alVLBjZMII1kR8QUV2R1-12" value="-Expertise:String" style="text;strokeColor=none;fillColor=none;align=left;verticalAlign=top;spacingLeft=4;spacingRight=4;overflow=hidden;rotatable=0;points=[[0,0.5],[1,0.5]];portConstraint=eastwest;whiteSpace=wrap;html=1;" vertex="1" parent="alVLBjZMII1kR8QUV2R1-11">
          <mxGeometry y="26" width="160" height="26" as="geometry" />
        </mxCell>
        <mxCell id="alVLBjZMII1kR8QUV2R1-13" value="" style="line;strokeWidth=1;fillColor=none;align=left;verticalAlign=middle;spacingTop=-1;spacingLeft=3;spacingRight=3;rotatable=0;labelPosition=right;points=[];portConstraint=eastwest;strokeColor=inherit;" vertex="1" parent="alVLBjZMII1kR8QUV2R1-11">
          <mxGeometry y="52" width="160" height="8" as="geometry" />
        </mxCell>
        <mxCell id="alVLBjZMII1kR8QUV2R1-16" value="Weather Report Page" style="swimlane;fontStyle=1;align=center;verticalAlign=top;childLayout=stackLayout;horizontal=1;startSize=26;horizontalStack=0;resizeParent=1;resizeParentMax=0;resizeLast=0;collapsible=1;marginBottom=0;whiteSpace=wrap;html=1;" vertex="1" parent="WIyWlLk6GJQsqaUBKTNV-1">
          <mxGeometry x="710" y="320" width="190" height="110" as="geometry" />
        </mxCell>
        <mxCell id="alVLBjZMII1kR8QUV2R1-17" value="- weatherDetails:WeatherDetails" style="text;strokeColor=none;fillColor=none;align=left;verticalAlign=top;spacingLeft=4;spacingRight=4;overflow=hidden;rotatable=0;points=[[0,0.5],[1,0.5]];portConstraint=eastwest;whiteSpace=wrap;html=1;" vertex="1" parent="alVLBjZMII1kR8QUV2R1-16">
          <mxGeometry y="26" width="190" height="34" as="geometry" />
        </mxCell>
        <mxCell id="alVLBjZMII1kR8QUV2R1-18" value="" style="line;strokeWidth=1;fillColor=none;align=left;verticalAlign=middle;spacingTop=-1;spacingLeft=3;spacingRight=3;rotatable=0;labelPosition=right;points=[];portConstraint=eastwest;strokeColor=inherit;" vertex="1" parent="alVLBjZMII1kR8QUV2R1-16">
          <mxGeometry y="60" width="190" height="8" as="geometry" />
        </mxCell>
        <mxCell id="alVLBjZMII1kR8QUV2R1-19" value="-fetchWeatherInfo()&lt;br&gt;+CardLayout.show()" style="text;strokeColor=none;fillColor=none;align=left;verticalAlign=top;spacingLeft=4;spacingRight=4;overflow=hidden;rotatable=0;points=[[0,0.5],[1,0.5]];portConstraint=eastwest;whiteSpace=wrap;html=1;" vertex="1" parent="alVLBjZMII1kR8QUV2R1-16">
          <mxGeometry y="68" width="190" height="42" as="geometry" />
        </mxCell>
        <mxCell id="alVLBjZMII1kR8QUV2R1-20" value="Weather Details" style="swimlane;fontStyle=1;align=center;verticalAlign=top;childLayout=stackLayout;horizontal=1;startSize=26;horizontalStack=0;resizeParent=1;resizeParentMax=0;resizeLast=0;collapsible=1;marginBottom=0;whiteSpace=wrap;html=1;" vertex="1" parent="WIyWlLk6GJQsqaUBKTNV-1">
          <mxGeometry x="1200" y="330" width="170" height="190" as="geometry" />
        </mxCell>
        <mxCell id="alVLBjZMII1kR8QUV2R1-21" value="&lt;div&gt;-Temperature:float&lt;/div&gt;&lt;div&gt;-Day:Integer&lt;/div&gt;&lt;div&gt;-Month:Integer&lt;/div&gt;&lt;div&gt;-Year:Integer&lt;/div&gt;&lt;div&gt;-WeatherType:String&lt;br&gt;-GoodORBad:Boolean&lt;/div&gt;" style="text;strokeColor=none;fillColor=none;align=left;verticalAlign=top;spacingLeft=4;spacingRight=4;overflow=hidden;rotatable=0;points=[[0,0.5],[1,0.5]];portConstraint=eastwest;whiteSpace=wrap;html=1;" vertex="1" parent="alVLBjZMII1kR8QUV2R1-20">
          <mxGeometry y="26" width="170" height="94" as="geometry" />
        </mxCell>
        <mxCell id="alVLBjZMII1kR8QUV2R1-22" value="" style="line;strokeWidth=1;fillColor=none;align=left;verticalAlign=middle;spacingTop=-1;spacingLeft=3;spacingRight=3;rotatable=0;labelPosition=right;points=[];portConstraint=eastwest;strokeColor=inherit;" vertex="1" parent="alVLBjZMII1kR8QUV2R1-20">
          <mxGeometry y="120" width="170" height="8" as="geometry" />
        </mxCell>
        <mxCell id="alVLBjZMII1kR8QUV2R1-23" value="+FetchTemperatureAPI()&lt;br&gt;&lt;div&gt;+FetchWeathTypeAPI()&lt;/div&gt;&lt;div&gt;+FetchDate()&lt;/div&gt;" style="text;strokeColor=none;fillColor=none;align=left;verticalAlign=top;spacingLeft=4;spacingRight=4;overflow=hidden;rotatable=0;points=[[0,0.5],[1,0.5]];portConstraint=eastwest;whiteSpace=wrap;html=1;" vertex="1" parent="alVLBjZMII1kR8QUV2R1-20">
          <mxGeometry y="128" width="170" height="62" as="geometry" />
        </mxCell>
        <mxCell id="alVLBjZMII1kR8QUV2R1-26" value="" style="endArrow=none;startArrow=none;endFill=0;startFill=0;endSize=8;html=1;verticalAlign=bottom;labelBackgroundColor=none;strokeWidth=3;rounded=0;exitX=0.996;exitY=1.065;exitDx=0;exitDy=0;exitPerimeter=0;entryX=0;entryY=0.5;entryDx=0;entryDy=0;" edge="1" parent="WIyWlLk6GJQsqaUBKTNV-1" source="alVLBjZMII1kR8QUV2R1-17" target="alVLBjZMII1kR8QUV2R1-21">
          <mxGeometry width="160" relative="1" as="geometry">
            <mxPoint x="1150" y="540" as="sourcePoint" />
            <mxPoint x="1310" y="540" as="targetPoint" />
          </mxGeometry>
        </mxCell>
        <mxCell id="alVLBjZMII1kR8QUV2R1-27" value="Good Weather Report Page" style="swimlane;fontStyle=1;align=center;verticalAlign=top;childLayout=stackLayout;horizontal=1;startSize=26;horizontalStack=0;resizeParent=1;resizeParentMax=0;resizeLast=0;collapsible=1;marginBottom=0;whiteSpace=wrap;html=1;" vertex="1" parent="WIyWlLk6GJQsqaUBKTNV-1">
          <mxGeometry x="660" y="560" width="190" height="150" as="geometry" />
        </mxCell>
        <mxCell id="alVLBjZMII1kR8QUV2R1-28" value="-backgroundColor: String&lt;br&gt;- emojiIcon: String&lt;br&gt;-FontStyle:String" style="text;strokeColor=none;fillColor=none;align=left;verticalAlign=top;spacingLeft=4;spacingRight=4;overflow=hidden;rotatable=0;points=[[0,0.5],[1,0.5]];portConstraint=eastwest;whiteSpace=wrap;html=1;" vertex="1" parent="alVLBjZMII1kR8QUV2R1-27">
          <mxGeometry y="26" width="190" height="64" as="geometry" />
        </mxCell>
        <mxCell id="alVLBjZMII1kR8QUV2R1-29" value="" style="line;strokeWidth=1;fillColor=none;align=left;verticalAlign=middle;spacingTop=-1;spacingLeft=3;spacingRight=3;rotatable=0;labelPosition=right;points=[];portConstraint=eastwest;strokeColor=inherit;" vertex="1" parent="alVLBjZMII1kR8QUV2R1-27">
          <mxGeometry y="90" width="190" height="8" as="geometry" />
        </mxCell>
        <mxCell id="alVLBjZMII1kR8QUV2R1-30" value="+CardLayout.show()&lt;br&gt;-PresentInfoBAD()" style="text;strokeColor=none;fillColor=none;align=left;verticalAlign=top;spacingLeft=4;spacingRight=4;overflow=hidden;rotatable=0;points=[[0,0.5],[1,0.5]];portConstraint=eastwest;whiteSpace=wrap;html=1;" vertex="1" parent="alVLBjZMII1kR8QUV2R1-27">
          <mxGeometry y="98" width="190" height="52" as="geometry" />
        </mxCell>
        <mxCell id="alVLBjZMII1kR8QUV2R1-31" value="Bad Weather Report Page" style="swimlane;fontStyle=1;align=center;verticalAlign=top;childLayout=stackLayout;horizontal=1;startSize=26;horizontalStack=0;resizeParent=1;resizeParentMax=0;resizeLast=0;collapsible=1;marginBottom=0;whiteSpace=wrap;html=1;" vertex="1" parent="WIyWlLk6GJQsqaUBKTNV-1">
          <mxGeometry x="880" y="560" width="190" height="180" as="geometry" />
        </mxCell>
        <mxCell id="alVLBjZMII1kR8QUV2R1-32" value="-backgroundColor: String&lt;br&gt;- emojiIcon: String&lt;br&gt;-WarningMessage:String&lt;br&gt;-FontStyle:String" style="text;strokeColor=none;fillColor=none;align=left;verticalAlign=top;spacingLeft=4;spacingRight=4;overflow=hidden;rotatable=0;points=[[0,0.5],[1,0.5]];portConstraint=eastwest;whiteSpace=wrap;html=1;" vertex="1" parent="alVLBjZMII1kR8QUV2R1-31">
          <mxGeometry y="26" width="190" height="84" as="geometry" />
        </mxCell>
        <mxCell id="alVLBjZMII1kR8QUV2R1-33" value="" style="line;strokeWidth=1;fillColor=none;align=left;verticalAlign=middle;spacingTop=-1;spacingLeft=3;spacingRight=3;rotatable=0;labelPosition=right;points=[];portConstraint=eastwest;strokeColor=inherit;" vertex="1" parent="alVLBjZMII1kR8QUV2R1-31">
          <mxGeometry y="110" width="190" height="8" as="geometry" />
        </mxCell>
        <mxCell id="alVLBjZMII1kR8QUV2R1-34" value="+CardLayout.show()&lt;br&gt;-PresentInfoGOOD()" style="text;strokeColor=none;fillColor=none;align=left;verticalAlign=top;spacingLeft=4;spacingRight=4;overflow=hidden;rotatable=0;points=[[0,0.5],[1,0.5]];portConstraint=eastwest;whiteSpace=wrap;html=1;" vertex="1" parent="alVLBjZMII1kR8QUV2R1-31">
          <mxGeometry y="118" width="190" height="62" as="geometry" />
        </mxCell>
        <mxCell id="alVLBjZMII1kR8QUV2R1-36" value="" style="endArrow=block;endSize=10;endFill=0;shadow=0;strokeWidth=1;rounded=0;curved=0;edgeStyle=elbowEdgeStyle;elbow=vertical;entryX=0.451;entryY=0.933;entryDx=0;entryDy=0;entryPerimeter=0;exitX=0.5;exitY=0;exitDx=0;exitDy=0;" edge="1" parent="WIyWlLk6GJQsqaUBKTNV-1" source="alVLBjZMII1kR8QUV2R1-31" target="alVLBjZMII1kR8QUV2R1-19">
          <mxGeometry width="160" relative="1" as="geometry">
            <mxPoint x="972" y="542" as="sourcePoint" />
            <mxPoint x="810" y="500" as="targetPoint" />
            <Array as="points">
              <mxPoint x="880" y="490" />
            </Array>
          </mxGeometry>
        </mxCell>
        <mxCell id="alVLBjZMII1kR8QUV2R1-37" value="" style="endArrow=block;endSize=10;endFill=0;shadow=0;strokeWidth=1;rounded=0;curved=0;edgeStyle=elbowEdgeStyle;elbow=vertical;exitX=0.5;exitY=0;exitDx=0;exitDy=0;entryX=0.451;entryY=0.933;entryDx=0;entryDy=0;entryPerimeter=0;" edge="1" parent="WIyWlLk6GJQsqaUBKTNV-1" source="alVLBjZMII1kR8QUV2R1-27" target="alVLBjZMII1kR8QUV2R1-19">
          <mxGeometry width="160" relative="1" as="geometry">
            <mxPoint x="782" y="522" as="sourcePoint" />
            <mxPoint x="830" y="450" as="targetPoint" />
            <Array as="points">
              <mxPoint x="780" y="490" />
            </Array>
          </mxGeometry>
        </mxCell>
        <mxCell id="alVLBjZMII1kR8QUV2R1-38" value="Selection Page" style="swimlane;fontStyle=1;align=center;verticalAlign=top;childLayout=stackLayout;horizontal=1;startSize=26;horizontalStack=0;resizeParent=1;resizeParentMax=0;resizeLast=0;collapsible=1;marginBottom=0;whiteSpace=wrap;html=1;" vertex="1" parent="WIyWlLk6GJQsqaUBKTNV-1">
          <mxGeometry x="-560" y="80" width="200" height="140" as="geometry" />
        </mxCell>
        <mxCell id="alVLBjZMII1kR8QUV2R1-39" value="&lt;div&gt;-UserChoiceNightORDay:Boolean&lt;/div&gt;" style="text;strokeColor=none;fillColor=none;align=left;verticalAlign=top;spacingLeft=4;spacingRight=4;overflow=hidden;rotatable=0;points=[[0,0.5],[1,0.5]];portConstraint=eastwest;whiteSpace=wrap;html=1;" vertex="1" parent="alVLBjZMII1kR8QUV2R1-38">
          <mxGeometry y="26" width="200" height="34" as="geometry" />
        </mxCell>
        <mxCell id="alVLBjZMII1kR8QUV2R1-40" value="" style="line;strokeWidth=1;fillColor=none;align=left;verticalAlign=middle;spacingTop=-1;spacingLeft=3;spacingRight=3;rotatable=0;labelPosition=right;points=[];portConstraint=eastwest;strokeColor=inherit;" vertex="1" parent="alVLBjZMII1kR8QUV2R1-38">
          <mxGeometry y="60" width="200" height="8" as="geometry" />
        </mxCell>
        <mxCell id="alVLBjZMII1kR8QUV2R1-41" value="&lt;div&gt;-CreateTrip()&lt;/div&gt;&lt;div&gt;+FetchUserChoice()&lt;br&gt;-ConfirmTrip()&lt;/div&gt;&lt;div&gt;+ShowTrips()&lt;/div&gt;" style="text;strokeColor=none;fillColor=none;align=left;verticalAlign=top;spacingLeft=4;spacingRight=4;overflow=hidden;rotatable=0;points=[[0,0.5],[1,0.5]];portConstraint=eastwest;whiteSpace=wrap;html=1;" vertex="1" parent="alVLBjZMII1kR8QUV2R1-38">
          <mxGeometry y="68" width="200" height="72" as="geometry" />
        </mxCell>
        <mxCell id="alVLBjZMII1kR8QUV2R1-42" value="Trip" style="swimlane;fontStyle=1;align=center;verticalAlign=top;childLayout=stackLayout;horizontal=1;startSize=26;horizontalStack=0;resizeParent=1;resizeParentMax=0;resizeLast=0;collapsible=1;marginBottom=0;whiteSpace=wrap;html=1;" vertex="1" parent="WIyWlLk6GJQsqaUBKTNV-1">
          <mxGeometry x="-600" y="350" width="200" height="130" as="geometry" />
        </mxCell>
        <mxCell id="alVLBjZMII1kR8QUV2R1-43" value="-TripTime: time&lt;br&gt;-TripDestination:String&lt;br&gt;-TripDay:Integer" style="text;strokeColor=none;fillColor=none;align=left;verticalAlign=top;spacingLeft=4;spacingRight=4;overflow=hidden;rotatable=0;points=[[0,0.5],[1,0.5]];portConstraint=eastwest;whiteSpace=wrap;html=1;" vertex="1" parent="alVLBjZMII1kR8QUV2R1-42">
          <mxGeometry y="26" width="200" height="54" as="geometry" />
        </mxCell>
        <mxCell id="alVLBjZMII1kR8QUV2R1-44" value="" style="line;strokeWidth=1;fillColor=none;align=left;verticalAlign=middle;spacingTop=-1;spacingLeft=3;spacingRight=3;rotatable=0;labelPosition=right;points=[];portConstraint=eastwest;strokeColor=inherit;" vertex="1" parent="alVLBjZMII1kR8QUV2R1-42">
          <mxGeometry y="80" width="200" height="8" as="geometry" />
        </mxCell>
        <mxCell id="alVLBjZMII1kR8QUV2R1-45" value="&lt;div&gt;-CreateTrip()&lt;/div&gt;&lt;div&gt;+FetchUserChoice()&lt;br&gt;&lt;br&gt;&lt;/div&gt;" style="text;strokeColor=none;fillColor=none;align=left;verticalAlign=top;spacingLeft=4;spacingRight=4;overflow=hidden;rotatable=0;points=[[0,0.5],[1,0.5]];portConstraint=eastwest;whiteSpace=wrap;html=1;" vertex="1" parent="alVLBjZMII1kR8QUV2R1-42">
          <mxGeometry y="88" width="200" height="42" as="geometry" />
        </mxCell>
        <mxCell id="alVLBjZMII1kR8QUV2R1-46" value="Morning Trip" style="swimlane;fontStyle=1;align=center;verticalAlign=top;childLayout=stackLayout;horizontal=1;startSize=26;horizontalStack=0;resizeParent=1;resizeParentMax=0;resizeLast=0;collapsible=1;marginBottom=0;whiteSpace=wrap;html=1;" vertex="1" parent="WIyWlLk6GJQsqaUBKTNV-1">
          <mxGeometry x="-570" y="590" width="200" height="120" as="geometry" />
        </mxCell>
        <mxCell id="alVLBjZMII1kR8QUV2R1-47" value="-backgroundColor: String&lt;br&gt;- emojiIcon: String" style="text;strokeColor=none;fillColor=none;align=left;verticalAlign=top;spacingLeft=4;spacingRight=4;overflow=hidden;rotatable=0;points=[[0,0.5],[1,0.5]];portConstraint=eastwest;whiteSpace=wrap;html=1;" vertex="1" parent="alVLBjZMII1kR8QUV2R1-46">
          <mxGeometry y="26" width="200" height="44" as="geometry" />
        </mxCell>
        <mxCell id="alVLBjZMII1kR8QUV2R1-48" value="" style="line;strokeWidth=1;fillColor=none;align=left;verticalAlign=middle;spacingTop=-1;spacingLeft=3;spacingRight=3;rotatable=0;labelPosition=right;points=[];portConstraint=eastwest;strokeColor=inherit;" vertex="1" parent="alVLBjZMII1kR8QUV2R1-46">
          <mxGeometry y="70" width="200" height="8" as="geometry" />
        </mxCell>
        <mxCell id="alVLBjZMII1kR8QUV2R1-49" value="-ProgramMorningTrip()" style="text;strokeColor=none;fillColor=none;align=left;verticalAlign=top;spacingLeft=4;spacingRight=4;overflow=hidden;rotatable=0;points=[[0,0.5],[1,0.5]];portConstraint=eastwest;whiteSpace=wrap;html=1;" vertex="1" parent="alVLBjZMII1kR8QUV2R1-46">
          <mxGeometry y="78" width="200" height="42" as="geometry" />
        </mxCell>
        <mxCell id="alVLBjZMII1kR8QUV2R1-50" value="Night Trip" style="swimlane;fontStyle=1;align=center;verticalAlign=top;childLayout=stackLayout;horizontal=1;startSize=26;horizontalStack=0;resizeParent=1;resizeParentMax=0;resizeLast=0;collapsible=1;marginBottom=0;whiteSpace=wrap;html=1;" vertex="1" parent="WIyWlLk6GJQsqaUBKTNV-1">
          <mxGeometry x="-330" y="590" width="200" height="120" as="geometry" />
        </mxCell>
        <mxCell id="alVLBjZMII1kR8QUV2R1-51" value="-backgroundColor: String&lt;br&gt;- emojiIcon: String" style="text;strokeColor=none;fillColor=none;align=left;verticalAlign=top;spacingLeft=4;spacingRight=4;overflow=hidden;rotatable=0;points=[[0,0.5],[1,0.5]];portConstraint=eastwest;whiteSpace=wrap;html=1;" vertex="1" parent="alVLBjZMII1kR8QUV2R1-50">
          <mxGeometry y="26" width="200" height="44" as="geometry" />
        </mxCell>
        <mxCell id="alVLBjZMII1kR8QUV2R1-52" value="" style="line;strokeWidth=1;fillColor=none;align=left;verticalAlign=middle;spacingTop=-1;spacingLeft=3;spacingRight=3;rotatable=0;labelPosition=right;points=[];portConstraint=eastwest;strokeColor=inherit;" vertex="1" parent="alVLBjZMII1kR8QUV2R1-50">
          <mxGeometry y="70" width="200" height="8" as="geometry" />
        </mxCell>
        <mxCell id="alVLBjZMII1kR8QUV2R1-53" value="-ProgramNightTrip()" style="text;strokeColor=none;fillColor=none;align=left;verticalAlign=top;spacingLeft=4;spacingRight=4;overflow=hidden;rotatable=0;points=[[0,0.5],[1,0.5]];portConstraint=eastwest;whiteSpace=wrap;html=1;" vertex="1" parent="alVLBjZMII1kR8QUV2R1-50">
          <mxGeometry y="78" width="200" height="42" as="geometry" />
        </mxCell>
        <mxCell id="alVLBjZMII1kR8QUV2R1-54" value="" style="endArrow=block;endSize=10;endFill=0;shadow=0;strokeWidth=1;rounded=0;curved=0;edgeStyle=elbowEdgeStyle;elbow=vertical;entryX=0.5;entryY=1;entryDx=0;entryDy=0;exitX=0.5;exitY=0;exitDx=0;exitDy=0;" edge="1" parent="WIyWlLk6GJQsqaUBKTNV-1" source="alVLBjZMII1kR8QUV2R1-50" target="alVLBjZMII1kR8QUV2R1-42">
          <mxGeometry width="160" relative="1" as="geometry">
            <mxPoint x="-208" y="571" as="sourcePoint" />
            <mxPoint x="-450" y="540" as="targetPoint" />
          </mxGeometry>
        </mxCell>
        <mxCell id="alVLBjZMII1kR8QUV2R1-55" value="" style="endArrow=block;endSize=10;endFill=0;shadow=0;strokeWidth=1;rounded=0;curved=0;edgeStyle=elbowEdgeStyle;elbow=vertical;entryX=0.497;entryY=1.036;entryDx=0;entryDy=0;entryPerimeter=0;exitX=0.5;exitY=0;exitDx=0;exitDy=0;" edge="1" parent="WIyWlLk6GJQsqaUBKTNV-1" source="alVLBjZMII1kR8QUV2R1-46" target="alVLBjZMII1kR8QUV2R1-45">
          <mxGeometry width="160" relative="1" as="geometry">
            <mxPoint x="-328" y="585" as="sourcePoint" />
            <mxPoint x="-570" y="554" as="targetPoint" />
          </mxGeometry>
        </mxCell>
        <mxCell id="alVLBjZMII1kR8QUV2R1-57" value="1" style="endArrow=open;html=1;endSize=12;startArrow=diamondThin;startSize=14;startFill=0;align=left;verticalAlign=bottom;rounded=0;exitX=0.394;exitY=1;exitDx=0;exitDy=0;exitPerimeter=0;entryX=0.45;entryY=0.008;entryDx=0;entryDy=0;entryPerimeter=0;" edge="1" parent="WIyWlLk6GJQsqaUBKTNV-1" source="alVLBjZMII1kR8QUV2R1-41" target="alVLBjZMII1kR8QUV2R1-42">
          <mxGeometry x="-1" y="3" relative="1" as="geometry">
            <mxPoint x="-493" y="344.5" as="sourcePoint" />
            <mxPoint x="-333" y="344.5" as="targetPoint" />
          </mxGeometry>
        </mxCell>
        <mxCell id="alVLBjZMII1kR8QUV2R1-58" value="" style="endArrow=open;shadow=0;strokeWidth=1;rounded=0;curved=0;endFill=1;edgeStyle=elbowEdgeStyle;elbow=vertical;exitX=0.18;exitY=-0.031;exitDx=0;exitDy=0;exitPerimeter=0;entryX=0.965;entryY=0.988;entryDx=0;entryDy=0;entryPerimeter=0;" edge="1" parent="WIyWlLk6GJQsqaUBKTNV-1" source="alVLBjZMII1kR8QUV2R1-0" target="alVLBjZMII1kR8QUV2R1-41">
          <mxGeometry x="0.5" y="41" relative="1" as="geometry">
            <mxPoint x="-80" y="570" as="sourcePoint" />
            <mxPoint x="-300" y="130" as="targetPoint" />
            <mxPoint x="-40" y="32" as="offset" />
            <Array as="points">
              <mxPoint x="-120" y="490" />
            </Array>
          </mxGeometry>
        </mxCell>
        <mxCell id="alVLBjZMII1kR8QUV2R1-59" value="1" style="resizable=0;align=left;verticalAlign=bottom;labelBackgroundColor=none;fontSize=12;" connectable="0" vertex="1" parent="alVLBjZMII1kR8QUV2R1-58">
          <mxGeometry x="-1" relative="1" as="geometry">
            <mxPoint y="4" as="offset" />
          </mxGeometry>
        </mxCell>
        <mxCell id="alVLBjZMII1kR8QUV2R1-60" value="1" style="resizable=0;align=right;verticalAlign=bottom;labelBackgroundColor=none;fontSize=12;" connectable="0" vertex="1" parent="alVLBjZMII1kR8QUV2R1-58">
          <mxGeometry x="1" relative="1" as="geometry">
            <mxPoint x="-7" y="4" as="offset" />
          </mxGeometry>
        </mxCell>
        <mxCell id="alVLBjZMII1kR8QUV2R1-61" value="Chooses" style="text;html=1;resizable=0;points=[];;align=center;verticalAlign=middle;labelBackgroundColor=none;rounded=0;shadow=0;strokeWidth=1;fontSize=12;" vertex="1" connectable="0" parent="alVLBjZMII1kR8QUV2R1-58">
          <mxGeometry x="0.5" y="49" relative="1" as="geometry">
            <mxPoint x="256" y="57" as="offset" />
          </mxGeometry>
        </mxCell>
        <mxCell id="alVLBjZMII1kR8QUV2R1-63" value="" style="endArrow=open;shadow=0;strokeWidth=1;rounded=0;curved=0;endFill=1;edgeStyle=elbowEdgeStyle;elbow=vertical;exitX=0.656;exitY=-0.028;exitDx=0;exitDy=0;exitPerimeter=0;entryX=0.188;entryY=1.012;entryDx=0;entryDy=0;entryPerimeter=0;" edge="1" parent="WIyWlLk6GJQsqaUBKTNV-1" source="alVLBjZMII1kR8QUV2R1-0" target="alVLBjZMII1kR8QUV2R1-19">
          <mxGeometry x="0.5" y="41" relative="1" as="geometry">
            <mxPoint x="606" y="500" as="sourcePoint" />
            <mxPoint x="110" y="180" as="targetPoint" />
            <mxPoint x="-40" y="32" as="offset" />
            <Array as="points">
              <mxPoint x="357" y="451" />
            </Array>
          </mxGeometry>
        </mxCell>
        <mxCell id="alVLBjZMII1kR8QUV2R1-64" value="1" style="resizable=0;align=left;verticalAlign=bottom;labelBackgroundColor=none;fontSize=12;" connectable="0" vertex="1" parent="alVLBjZMII1kR8QUV2R1-63">
          <mxGeometry x="-1" relative="1" as="geometry">
            <mxPoint y="4" as="offset" />
          </mxGeometry>
        </mxCell>
        <mxCell id="alVLBjZMII1kR8QUV2R1-65" value="1" style="resizable=0;align=right;verticalAlign=bottom;labelBackgroundColor=none;fontSize=12;" connectable="0" vertex="1" parent="alVLBjZMII1kR8QUV2R1-63">
          <mxGeometry x="1" relative="1" as="geometry">
            <mxPoint x="-6" y="39" as="offset" />
          </mxGeometry>
        </mxCell>
        <mxCell id="alVLBjZMII1kR8QUV2R1-66" value="Inspects" style="text;html=1;resizable=0;points=[];;align=center;verticalAlign=middle;labelBackgroundColor=none;rounded=0;shadow=0;strokeWidth=1;fontSize=12;" vertex="1" connectable="0" parent="alVLBjZMII1kR8QUV2R1-63">
          <mxGeometry x="0.5" y="49" relative="1" as="geometry">
            <mxPoint x="-184" y="38" as="offset" />
          </mxGeometry>
        </mxCell>
        <mxCell id="alVLBjZMII1kR8QUV2R1-67" value="Search Page" style="swimlane;fontStyle=1;align=center;verticalAlign=top;childLayout=stackLayout;horizontal=1;startSize=26;horizontalStack=0;resizeParent=1;resizeParentMax=0;resizeLast=0;collapsible=1;marginBottom=0;whiteSpace=wrap;html=1;" vertex="1" parent="WIyWlLk6GJQsqaUBKTNV-1">
          <mxGeometry x="-280" y="110" width="240" height="160" as="geometry" />
        </mxCell>
        <mxCell id="alVLBjZMII1kR8QUV2R1-68" value="-SearchQuery:String" style="text;strokeColor=none;fillColor=none;align=left;verticalAlign=top;spacingLeft=4;spacingRight=4;overflow=hidden;rotatable=0;points=[[0,0.5],[1,0.5]];portConstraint=eastwest;whiteSpace=wrap;html=1;" vertex="1" parent="alVLBjZMII1kR8QUV2R1-67">
          <mxGeometry y="26" width="240" height="26" as="geometry" />
        </mxCell>
        <mxCell id="alVLBjZMII1kR8QUV2R1-69" value="" style="line;strokeWidth=1;fillColor=none;align=left;verticalAlign=middle;spacingTop=-1;spacingLeft=3;spacingRight=3;rotatable=0;labelPosition=right;points=[];portConstraint=eastwest;strokeColor=inherit;" vertex="1" parent="alVLBjZMII1kR8QUV2R1-67">
          <mxGeometry y="52" width="240" height="8" as="geometry" />
        </mxCell>
        <mxCell id="alVLBjZMII1kR8QUV2R1-70" value="&lt;p&gt;+enterSearchQuery(query : String)&lt;br&gt;+submitSearch()&lt;/p&gt;&lt;p&gt;+FetchBaitDetails()&lt;/p&gt;" style="text;strokeColor=none;fillColor=none;align=left;verticalAlign=top;spacingLeft=4;spacingRight=4;overflow=hidden;rotatable=0;points=[[0,0.5],[1,0.5]];portConstraint=eastwest;whiteSpace=wrap;html=1;" vertex="1" parent="alVLBjZMII1kR8QUV2R1-67">
          <mxGeometry y="60" width="240" height="100" as="geometry" />
        </mxCell>
        <mxCell id="alVLBjZMII1kR8QUV2R1-71" value="Bait Results" style="swimlane;fontStyle=1;align=center;verticalAlign=top;childLayout=stackLayout;horizontal=1;startSize=26;horizontalStack=0;resizeParent=1;resizeParentMax=0;resizeLast=0;collapsible=1;marginBottom=0;whiteSpace=wrap;html=1;" vertex="1" parent="WIyWlLk6GJQsqaUBKTNV-1">
          <mxGeometry x="-160" y="-280" width="200" height="308" as="geometry" />
        </mxCell>
        <mxCell id="alVLBjZMII1kR8QUV2R1-72" value="&lt;p&gt;-baitList : List&lt;/p&gt;&lt;p&gt;-name : String&lt;br&gt;&lt;br/&gt;-price : float&lt;br&gt;&lt;br/&gt;-effectiveness : int&lt;/p&gt;" style="text;strokeColor=none;fillColor=none;align=left;verticalAlign=top;spacingLeft=4;spacingRight=4;overflow=hidden;rotatable=0;points=[[0,0.5],[1,0.5]];portConstraint=eastwest;whiteSpace=wrap;html=1;" vertex="1" parent="alVLBjZMII1kR8QUV2R1-71">
          <mxGeometry y="26" width="200" height="124" as="geometry" />
        </mxCell>
        <mxCell id="alVLBjZMII1kR8QUV2R1-73" value="" style="line;strokeWidth=1;fillColor=none;align=left;verticalAlign=middle;spacingTop=-1;spacingLeft=3;spacingRight=3;rotatable=0;labelPosition=right;points=[];portConstraint=eastwest;strokeColor=inherit;" vertex="1" parent="alVLBjZMII1kR8QUV2R1-71">
          <mxGeometry y="150" width="200" height="8" as="geometry" />
        </mxCell>
        <mxCell id="alVLBjZMII1kR8QUV2R1-74" value="&lt;p&gt;+getResults() : List&lt;br&gt;&lt;br/&gt;+filterByCheapest() : List&lt;br&gt;&lt;br/&gt;+filterByEffectiveness() : List&lt;br&gt;&lt;br/&gt;+filterAlphabetically() : List&lt;/p&gt;" style="text;strokeColor=none;fillColor=none;align=left;verticalAlign=top;spacingLeft=4;spacingRight=4;overflow=hidden;rotatable=0;points=[[0,0.5],[1,0.5]];portConstraint=eastwest;whiteSpace=wrap;html=1;" vertex="1" parent="alVLBjZMII1kR8QUV2R1-71">
          <mxGeometry y="158" width="200" height="150" as="geometry" />
        </mxCell>
        <mxCell id="alVLBjZMII1kR8QUV2R1-75" value="Sorting Page" style="swimlane;fontStyle=1;align=center;verticalAlign=top;childLayout=stackLayout;horizontal=1;startSize=26;horizontalStack=0;resizeParent=1;resizeParentMax=0;resizeLast=0;collapsible=1;marginBottom=0;whiteSpace=wrap;html=1;" vertex="1" parent="WIyWlLk6GJQsqaUBKTNV-1">
          <mxGeometry x="110" y="-90" width="160" height="140" as="geometry" />
        </mxCell>
        <mxCell id="alVLBjZMII1kR8QUV2R1-76" value="-selectedFilter : String" style="text;strokeColor=none;fillColor=none;align=left;verticalAlign=top;spacingLeft=4;spacingRight=4;overflow=hidden;rotatable=0;points=[[0,0.5],[1,0.5]];portConstraint=eastwest;whiteSpace=wrap;html=1;" vertex="1" parent="alVLBjZMII1kR8QUV2R1-75">
          <mxGeometry y="26" width="160" height="26" as="geometry" />
        </mxCell>
        <mxCell id="alVLBjZMII1kR8QUV2R1-77" value="" style="line;strokeWidth=1;fillColor=none;align=left;verticalAlign=middle;spacingTop=-1;spacingLeft=3;spacingRight=3;rotatable=0;labelPosition=right;points=[];portConstraint=eastwest;strokeColor=inherit;" vertex="1" parent="alVLBjZMII1kR8QUV2R1-75">
          <mxGeometry y="52" width="160" height="8" as="geometry" />
        </mxCell>
        <mxCell id="alVLBjZMII1kR8QUV2R1-78" value="&lt;p&gt;+chooseFilter(filter : String)&lt;br&gt;&lt;br&gt;+applyFilter()&lt;/p&gt;" style="text;strokeColor=none;fillColor=none;align=left;verticalAlign=top;spacingLeft=4;spacingRight=4;overflow=hidden;rotatable=0;points=[[0,0.5],[1,0.5]];portConstraint=eastwest;whiteSpace=wrap;html=1;" vertex="1" parent="alVLBjZMII1kR8QUV2R1-75">
          <mxGeometry y="60" width="160" height="80" as="geometry" />
        </mxCell>
        <mxCell id="alVLBjZMII1kR8QUV2R1-79" value="Result Page" style="swimlane;fontStyle=1;align=center;verticalAlign=top;childLayout=stackLayout;horizontal=1;startSize=26;horizontalStack=0;resizeParent=1;resizeParentMax=0;resizeLast=0;collapsible=1;marginBottom=0;whiteSpace=wrap;html=1;" vertex="1" parent="WIyWlLk6GJQsqaUBKTNV-1">
          <mxGeometry x="120" y="180" width="160" height="110" as="geometry" />
        </mxCell>
        <mxCell id="alVLBjZMII1kR8QUV2R1-80" value="-displayedResults : List" style="text;strokeColor=none;fillColor=none;align=left;verticalAlign=top;spacingLeft=4;spacingRight=4;overflow=hidden;rotatable=0;points=[[0,0.5],[1,0.5]];portConstraint=eastwest;whiteSpace=wrap;html=1;" vertex="1" parent="alVLBjZMII1kR8QUV2R1-79">
          <mxGeometry y="26" width="160" height="26" as="geometry" />
        </mxCell>
        <mxCell id="alVLBjZMII1kR8QUV2R1-81" value="" style="line;strokeWidth=1;fillColor=none;align=left;verticalAlign=middle;spacingTop=-1;spacingLeft=3;spacingRight=3;rotatable=0;labelPosition=right;points=[];portConstraint=eastwest;strokeColor=inherit;" vertex="1" parent="alVLBjZMII1kR8QUV2R1-79">
          <mxGeometry y="52" width="160" height="8" as="geometry" />
        </mxCell>
        <mxCell id="alVLBjZMII1kR8QUV2R1-82" value="&lt;p&gt;+showResults(results : List)&lt;/p&gt;" style="text;strokeColor=none;fillColor=none;align=left;verticalAlign=top;spacingLeft=4;spacingRight=4;overflow=hidden;rotatable=0;points=[[0,0.5],[1,0.5]];portConstraint=eastwest;whiteSpace=wrap;html=1;" vertex="1" parent="alVLBjZMII1kR8QUV2R1-79">
          <mxGeometry y="60" width="160" height="50" as="geometry" />
        </mxCell>
        <mxCell id="alVLBjZMII1kR8QUV2R1-83" value="" style="endArrow=none;startArrow=none;endFill=0;startFill=0;endSize=8;html=1;verticalAlign=bottom;labelBackgroundColor=none;strokeWidth=3;rounded=0;entryX=0.5;entryY=0;entryDx=0;entryDy=0;exitX=0.525;exitY=0.975;exitDx=0;exitDy=0;exitPerimeter=0;" edge="1" parent="WIyWlLk6GJQsqaUBKTNV-1" source="alVLBjZMII1kR8QUV2R1-78" target="alVLBjZMII1kR8QUV2R1-79">
          <mxGeometry width="160" relative="1" as="geometry">
            <mxPoint x="218.9200000000002" y="99.99999999999986" as="sourcePoint" />
            <mxPoint x="141.08000000000004" y="177.9499999999999" as="targetPoint" />
          </mxGeometry>
        </mxCell>
        <mxCell id="alVLBjZMII1kR8QUV2R1-84" value="Uses" style="edgeLabel;html=1;align=center;verticalAlign=middle;resizable=0;points=[];" vertex="1" connectable="0" parent="alVLBjZMII1kR8QUV2R1-83">
          <mxGeometry x="0.003" y="-3" relative="1" as="geometry">
            <mxPoint y="-1" as="offset" />
          </mxGeometry>
        </mxCell>
        <mxCell id="alVLBjZMII1kR8QUV2R1-86" value="1" style="endArrow=open;html=1;endSize=12;startArrow=diamondThin;startSize=14;startFill=1;align=left;verticalAlign=bottom;rounded=0;entryX=1.006;entryY=0.172;entryDx=0;entryDy=0;entryPerimeter=0;exitX=-0.009;exitY=0.349;exitDx=0;exitDy=0;exitPerimeter=0;" edge="1" parent="WIyWlLk6GJQsqaUBKTNV-1" source="alVLBjZMII1kR8QUV2R1-78" target="alVLBjZMII1kR8QUV2R1-68">
          <mxGeometry x="-1" y="3" relative="1" as="geometry">
            <mxPoint x="70" y="210" as="sourcePoint" />
            <mxPoint x="480" y="40" as="targetPoint" />
          </mxGeometry>
        </mxCell>
        <mxCell id="alVLBjZMII1kR8QUV2R1-88" value="1" style="endArrow=open;html=1;endSize=12;startArrow=diamondThin;startSize=14;startFill=0;align=left;verticalAlign=bottom;rounded=0;exitX=0.999;exitY=0.292;exitDx=0;exitDy=0;exitPerimeter=0;entryX=0;entryY=0.5;entryDx=0;entryDy=0;" edge="1" parent="WIyWlLk6GJQsqaUBKTNV-1" source="alVLBjZMII1kR8QUV2R1-70" target="alVLBjZMII1kR8QUV2R1-80">
          <mxGeometry x="-1" y="3" relative="1" as="geometry">
            <mxPoint x="-20" y="200" as="sourcePoint" />
            <mxPoint x="140" y="200" as="targetPoint" />
          </mxGeometry>
        </mxCell>
        <mxCell id="alVLBjZMII1kR8QUV2R1-89" value="" style="endArrow=none;startArrow=none;endFill=0;startFill=0;endSize=8;html=1;verticalAlign=bottom;labelBackgroundColor=none;strokeWidth=3;rounded=0;entryX=0.5;entryY=0;entryDx=0;entryDy=0;exitX=0.505;exitY=1.013;exitDx=0;exitDy=0;exitPerimeter=0;" edge="1" parent="WIyWlLk6GJQsqaUBKTNV-1" source="alVLBjZMII1kR8QUV2R1-74" target="alVLBjZMII1kR8QUV2R1-67">
          <mxGeometry width="160" relative="1" as="geometry">
            <mxPoint x="-59" y="40" as="sourcePoint" />
            <mxPoint x="-137" y="118" as="targetPoint" />
          </mxGeometry>
        </mxCell>
        <mxCell id="alVLBjZMII1kR8QUV2R1-90" value="Uses" style="edgeLabel;html=1;align=center;verticalAlign=middle;resizable=0;points=[];" vertex="1" connectable="0" parent="alVLBjZMII1kR8QUV2R1-89">
          <mxGeometry x="0.003" y="-3" relative="1" as="geometry">
            <mxPoint y="-1" as="offset" />
          </mxGeometry>
        </mxCell>
        <mxCell id="alVLBjZMII1kR8QUV2R1-91" value="" style="endArrow=open;shadow=0;strokeWidth=1;rounded=0;curved=0;endFill=1;edgeStyle=elbowEdgeStyle;elbow=vertical;entryX=0.593;entryY=1.022;entryDx=0;entryDy=0;entryPerimeter=0;" edge="1" parent="WIyWlLk6GJQsqaUBKTNV-1" target="alVLBjZMII1kR8QUV2R1-70">
          <mxGeometry x="0.5" y="41" relative="1" as="geometry">
            <mxPoint x="170" y="540" as="sourcePoint" />
            <mxPoint x="530" y="350" as="targetPoint" />
            <mxPoint x="-40" y="32" as="offset" />
            <Array as="points">
              <mxPoint x="141" y="370" />
            </Array>
          </mxGeometry>
        </mxCell>
        <mxCell id="alVLBjZMII1kR8QUV2R1-92" value="1" style="resizable=0;align=left;verticalAlign=bottom;labelBackgroundColor=none;fontSize=12;" connectable="0" vertex="1" parent="alVLBjZMII1kR8QUV2R1-91">
          <mxGeometry x="-1" relative="1" as="geometry">
            <mxPoint y="4" as="offset" />
          </mxGeometry>
        </mxCell>
        <mxCell id="alVLBjZMII1kR8QUV2R1-93" value="1" style="resizable=0;align=right;verticalAlign=bottom;labelBackgroundColor=none;fontSize=12;" connectable="0" vertex="1" parent="alVLBjZMII1kR8QUV2R1-91">
          <mxGeometry x="1" relative="1" as="geometry">
            <mxPoint x="-6" y="39" as="offset" />
          </mxGeometry>
        </mxCell>
        <mxCell id="alVLBjZMII1kR8QUV2R1-94" value="Inspects" style="text;html=1;resizable=0;points=[];;align=center;verticalAlign=middle;labelBackgroundColor=none;rounded=0;shadow=0;strokeWidth=1;fontSize=12;" vertex="1" connectable="0" parent="alVLBjZMII1kR8QUV2R1-91">
          <mxGeometry x="0.5" y="49" relative="1" as="geometry">
            <mxPoint x="-184" y="38" as="offset" />
          </mxGeometry>
        </mxCell>
        <mxCell id="alVLBjZMII1kR8QUV2R1-95" value="Uses" style="text;html=1;align=center;verticalAlign=middle;resizable=0;points=[];autosize=1;strokeColor=none;fillColor=none;" vertex="1" parent="WIyWlLk6GJQsqaUBKTNV-1">
          <mxGeometry x="-15" y="350" width="50" height="30" as="geometry" />
        </mxCell>
      </root>
    </mxGraphModel>
  </diagram>
</mxfile>
